# xmcd
#
# Track frame offsets:
#	150
#	15450
#	27915
#	41915
#	54855
#	70227
#	83752
#	94532
#	106237
#	116995
#	130432
#	141625
#	158147
#	172760
#
# Disc length: 2491 seconds
#
# Revision: 1
# Processed by: cddbd v1.5PL3 Copyright (c) Steve Scherf et al.
# Submitted via: dBpowerAMP V4.0
#
DISCID=b709b90e
DTITLE=Mr.Music Country - Mr music Country 03-93
DYEAR=1993
DGENRE=Country
TTITLE0=Marty Stuart with Johnny Cash - Doin' My Time
TTITLE1=Ferlin Husky - When Love Comes Home Tonight
TTITLE2=Martina McBride with Garth Brooks - Cheap Whiskey
TTITLE3=Mac Wiseman - Once More With Feeling
TTITLE4=Dawn Dorminy - You Can't Put The City In A country Girl
TTITLE5=bill Arwood - This Old martin Guitar
TTITLE6=Jeanne Pruett - Rented Room
TTITLE7=Red Steagall - In The Dallas Morning News
TTITLE8=Hank Thompson - Walking On New Grass
TTITLE9=Jim Ed Brown and The Browns - Ragin' Storm
TTITLE10=Walt Conklin - Her Memory Walks The Floor
TTITLE11=Angie Welch - Route 99
TTITLE12=Jimmy C. Newman - louisiana, The Key To My Soul
TTITLE13=Billie Jo Spears - like I'm Needin' You Tonight
EXTD=www.frodehoydal.com
EXTT0=
EXTT1=
EXTT2=
EXTT3=
EXTT4=
EXTT5=
EXTT6=
EXTT7=
EXTT8=
EXTT9=
EXTT10=
EXTT11=
EXTT12=
EXTT13=
PLAYORDER=
